<!DOCTYPE svg PUBLIC "-//W3C//DTD SVG 1.1//EN" "http://www.w3.org/Graphics/SVG/1.1/DTD/svg11.dtd">
<!-- Uploaded to: SVG Repo, www.svgrepo.com, Transformed by: SVG Repo Mixer Tools -->
<svg fill="#000000" version="1.1" id="Layer_1" xmlns="http://www.w3.org/2000/svg" xmlns:xlink="http://www.w3.org/1999/xlink" viewBox="0 0 496 496" xml:space="preserve" width="173px" height="173px" stroke="#000000">
<g id="SVGRepo_bgCarrier" stroke-width="0"/>
<g id="SVGRepo_tracerCarrier" stroke-linecap="round" stroke-linejoin="round"/>
<g id="SVGRepo_iconCarrier"> <g> <g> <g> <path d="M376,304V0H168v150.112l-37.424,74.84C123.656,238.808,120,254.296,120,269.768c0,13.152,2.536,25.976,7.544,38.152 L176,425.584V496h16v-73.584l-49.656-120.592c-4.208-10.232-6.344-21.008-6.344-32.056c0-13,3.08-26.016,8.888-37.656 L168,185.888V304h59.328l-3.28,31.168l15.904,1.672l13.224-125.616c1.16-10.96,10.336-19.224,21.352-19.224 c11.84,0,21.472,9.632,21.472,21.472v109.192l10.616,14.16c8.632,11.504,13.384,25.76,13.384,40.144 c0,17.872-6.96,34.68-19.592,47.312L296,428.688V496h16v-60.688c15.48-15.624,24-36.328,24-58.344 c0-17.824-5.888-35.488-16.584-49.744L312,317.336V304H376z M274.528,176c-19.224,0-35.248,14.424-37.256,33.544L229.016,288H184 V16h176v272h-48v-74.528C312,192.808,295.192,176,274.528,176z"/> <rect x="328" y="32" width="16" height="16"/> <rect x="296" y="32" width="16" height="16"/> <rect x="264" y="32" width="16" height="16"/> </g> </g> </g> </g>
</svg>